<?xml version="1.0" encoding="UTF-8"?>
<svg id="Livello_2" data-name="Livello 2" xmlns="http://www.w3.org/2000/svg" viewBox="0 0 688.87 157.81">
  <defs>
    <style>
      .cls-1 {
        letter-spacing: -.09em;
      }

      .cls-2, .cls-3, .cls-4 {
        fill: #fff;
      }

      .cls-5 {
        letter-spacing: 0em;
      }

      .cls-6 {
        letter-spacing: 0em;
      }

      .cls-3 {
        font-family: Gotham-Black, Gotham;
        font-size: 119.03px;
        font-weight: 800;
      }

      .cls-4 {
        font-family: SegoeUI-Italic, 'Segoe UI';
        font-size: 62.87px;
        font-style: italic;
      }
    </style>
  </defs>
  <g id="Livello_1-2" data-name="Livello 1">
    <g>
      <text class="cls-3" transform="translate(170.65 120.43)"><tspan class="cls-1" x="0" y="0">T</tspan><tspan class="cls-5" x="67.85" y="0">ALD</tspan></text>
      <text class="cls-4" transform="translate(512.98 70.01)"><tspan x="0" y="0">De</tspan><tspan class="cls-6" x="75.36" y="0">t</tspan><tspan x="95.75" y="0">ect</tspan></text>
      <path class="cls-2" d="M113.67,13.71c14.35-1.56,29.8,7.13,31.09,22.44,20.41,8.49,22.78,35.91,3.31,47.14-.2,1.95.06,3.89-.18,5.84-.4,3.21-2.68,7.46-2.74,10.5-.04,2.18,1.3,5.01,1.51,7.29,1.13,12.6-13.01,28.62-25.53,29.83-23.71,2.29-40.21-16.34-47.08-36.97-4.06,1.25-7.95,3.09-12.26,3.43-14.18,1.14-30.36-9.6-31.17-24.5C5.09,82.13-7.3,54.53,4.48,33.86c6.23-10.94,16.39-16.61,29.11-15.83C36.29,8.37,45.55,1.74,55.4.94c7.51-.61,12.96,2.54,19.25,6,.7-1.44,1.62-1.95,2.87-2.79,12.24-8.23,29.83-3.76,36.15,9.57ZM101.41,13.93c-6.68-6.57-20.63-3.77-24.13,5.02-1.48,3.71-2.16,14.98.16,18.21.47.65,4.71.54,5.14,1.83,2.14,11.52-12.18,9.91-19.72,11.55s-14.8,5.63-19.09,12.3c-6.39,9.94-2.76,23.05,7.96,28.08,8.03,3.77,22.85-.85,28.76-7.27,3.16-3.43,7.93-15.5,14.21-9.47,5.39,5.17-7.64,10.04-1.32,17.23,9.6,10.94,23.62,16.01,36.44,6.75,4.01-2.9,6.11-7.68,6.13-12.56-6.41-.63-12.35-3.36-15.7-9.04-4.96,3.21-6.86,10.15-13.09,11.83-2.32.63-3.42-.35-4.67-2.23-3.44-5.17.93-5.81,4.02-8.73,2.75-2.59,4.68-5.49,7.28-8.16-.13-4.09-.92-8.16-.62-12.27.79-11.01,9.31-20.76,20.63-21.29-1.16-5.69-4.63-9.57-10.31-10.97-12.72-3.13-24.27,6.94-24.1,19.76.04,3.31,2.59,7.52,1.41,10.45-1.02,2.51-10.39,4.78-13.29,6.06-6.65,2.92-12.08,7.41-17.13,12.53-2.17,2.2-3.26,5.33-5.93,6.53-5.6,2.53-9.22-.94-8.86-6.68.39-6.09,5.7-5.57,9.86-3.29,1.26-12.47,15.55-14.91,24.3-20.63.16-10.21-.41-19.97,8.16-27.1,1.31-1.09,6.2-3.34,6.28-3.7.24-1.15-1.91-3.9-2.76-4.74ZM68.46,39.14c-2.58-5.94-3.4-13.53-2.03-19.87.29-1.34,1.73-2.62.78-4.01-.64-.94-3.92-2.71-5.08-3.11-6.9-2.34-15.9.71-18.68,7.78-2.04,5.2,1.04,4.69,3.93,8.25,3.46,4.26,4.99,9.81,5.17,15.25l15.91-4.31ZM35.08,53.61c.71.63,1.47,1.21,2.41.81.57-.24,3.98-3.29,4.33-3.87,2.79-4.61-.87-16.58-5.46-19.51-8.4-5.36-20.96.71-24.31,9.52-5.18,13.62,1.57,30.58,18.14,28.25-.53-2.1,1.58-4.56.65-6.45-.33-.67-2.27-1.51-3-2.16-3.28-2.89-10.45-11.31-3.41-14.14s7.52,4.76,10.64,7.54ZM127.09,48.76c-14.59,13.92,9.03,38.64,21.28,20.63,10.16-14.95-9.9-31.49-21.28-20.63ZM133.79,107.53c-.75-.54-7.5,3.49-9.01,4.06-8.12,3.09-19.81,1.74-27.14-2.95-1.07-.68-8.85-7.25-9.4-6.72,3.27,5.72,5.64,12.14,10.52,16.78,8.04,7.64,21.27,10.48,30.33,2.79,3.43-2.92,6.67-9.64,4.7-13.96Z"/>
    </g>
  </g>
</svg>